PathFileType	4	(X/Y/Z)	D:\MotionData\Pi-Spi Study\20230118_AMCsubject1\Trimmed_left_abd_001_rotated.trc
DataRate	CameraRate	NumFrames	NumMarkers	Units	OrigDataRate	OrigDataStartFrame	OrigNumFrames
200.00	200.00	       5	35	mm	200.00	51	       200
Frame#	Time	C7			Sternum			r_AMC1			r_AMC2			r_AMC3			l_AMC1			l_AMC2			l_AMC3			PX			T8			r_humerous			r_elbow_medial			r_elbow_lateral			r_forearm			r_wrist_radius			r_wrist_ulna			r_MCP_1			r_MCP_3			l_humerous			l_elbow_medial			l_elbow_lateral			l_forearm			l_wrist_radius			l_wrist_ulna			l_MCP_1			l_MCP_3			r_ASIS			r_PSIS			l_ASIS			l_PSIS			r_IC			l_IC			TS			AI			AA			
		X1	Y1	Z1	X2	Y2	Z2	X3	Y3	Z3	X4	Y4	Z4	X5	Y5	Z5	X6	Y6	Z6	X7	Y7	Z7	X8	Y8	Z8	X9	Y9	Z9	X10	Y10	Z10	X11	Y11	Z11	X12	Y12	Z12	X13	Y13	Z13	X14	Y14	Z14	X15	Y15	Z15	X16	Y16	Z16	X17	Y17	Z17	X18	Y18	Z18	X19	Y19	Z19	X20	Y20	Z20	X21	Y21	Z21	X22	Y22	Z22	X23	Y23	Z23	X24	Y24	Z24	X25	Y25	Z25	X26	Y26	Z26	X27	Y27	Z27	X28	Y28	Z28	X29	Y29	Z29	X30	Y30	Z30	X31	Y31	Z31	X32	Y32	Z32	X33	Y33	Z33	X34	Y34	Z34	X35	Y35	Z35	

51	0.25	208.0033	1374.5223	-207.0828	336.2821	1302.6453	-199.9559	208.7782	1315.2379	-41.98	246.8047	1311.6873	-9.8882	267.7565	1346.2991	-29.9896	228.4121	1324.3711	-373.1763	267.8893	1316.0781	-404.684	291.6796	1351.5477	-375.2791	390.8854	1112.5834	-196.22	157.9344	1191.2802	-217.6037	314.1675	1125.0502	-2.1731	250.0778	986.3164	-33.285	256.4677	995.335	35.1258	311.7799	841.285	60.7047	364.2147	779.7517	45.493	315.2411	772.0345	60.5927	387.3808	697.522	59.6616	338.0991	693.1084	70.8999	351.339	1122.9998	-396.4947	290.1004	993.598	-368.8236	294.5154	989.3375	-421.1415	329.8071	840.0826	-453.5973	370.8909	766.8801	-448.5471	326.0062	763.1715	-448.0567	379.0037	687.5261	-458.9935	330.4806	684.0897	-453.2155	376.1168	906.7641	-67.0864	186.8404	923.9282	-153.1861	380.2886	893.2965	-329.2832	189.1847	918.5449	-256.648	285.9547	966.1013	-41.7963	289.0997	938.9263	-367.712	133.6353	1309.014	-323.1538	119.4784	1209.1639	-314.8099	210.1055	1293.4697	-437.3807
52	0.255	208.0128	1374.5032	-207.0696	336.4151	1302.6172	-199.9927	208.7962	1315.2268	-41.9698	246.7911	1311.7223	-9.8639	267.7101	1346.4288	-29.9229	228.6115	1324.3744	-373.0204	267.6736	1316.0813	-404.7246	291.6075	1351.4722	-374.9663	390.8609	1112.5811	-196.191	157.9421	1191.2885	-217.5973	314.1863	1125.0395	-2.1705	250.0836	986.3049	-33.2369	256.5129	995.3402	35.1047	311.7987	841.2624	60.7331	364.253	779.7686	45.4594	315.277	772.0323	60.5631	387.3349	697.6224	59.727	338.168	692.9855	70.8764	351.3313	1122.9871	-396.4999	290.1191	993.5892	-368.7912	294.5172	989.3401	-421.1066	329.7967	840.0845	-453.5802	370.8456	766.8738	-448.5411	325.9814	763.1711	-448.0558	379.0617	687.362	-458.9161	330.4458	684.1154	-453.2248	376.1617	906.7526	-67.081	186.8622	923.9039	-153.1632	380.2716	893.2908	-329.2781	189.1868	918.5468	-256.6356	285.9099	966.1623	-41.7953	289.0671	938.9394	-367.683	133.649	1308.9851	-323.1863	119.4535	1209.1617	-314.7315	210.1146	1293.4725	-437.3709
53	0.26	207.9907	1374.5005	-207.0571	336.2722	1302.6481	-199.949	208.8004	1315.2404	-41.9574	246.7969	1311.7122	-9.8504	267.6956	1346.4399	-29.886	228.5646	1324.4115	-373.0107	267.6416	1316.0612	-404.6968	291.6454	1351.5601	-375.3153	390.8605	1112.5566	-196.1606	157.9287	1191.2846	-217.5738	314.2549	1124.9868	-2.1606	250.0472	986.3367	-33.2196	256.5135	995.3336	35.1247	312.0469	841.4079	60.9443	364.2961	779.6661	45.4937	315.2689	772.0539	60.6036	387.3829	697.581	59.7315	338.1084	693.0676	70.9304	351.2952	1123.0897	-396.4787	290.0646	993.6001	-368.8092	294.5049	989.3456	-421.1223	329.7795	840.098	-453.5859	370.8151	766.9011	-448.5094	325.9498	763.1472	-448.0299	379.0148	687.3397	-458.8763	330.4174	684.1324	-453.2216	376.191	906.7676	-67.0685	186.8773	923.919	-153.134	380.2642	893.2922	-329.2823	189.1808	918.5596	-256.6198	285.8811	966.216	-41.7874	289.0876	938.9174	-367.6926	133.6331	1308.9911	-323.1507	119.4945	1209.1385	-314.7611	210.1141	1293.4618	-437.3798
54	0.265	208.0153	1374.5079	-207.0381	336.2955	1302.6398	-199.9387	208.7975	1315.2371	-41.9331	246.818	1311.7288	-9.8604	267.7796	1346.2817	-29.9655	228.3721	1324.3427	-373.1159	267.8388	1316.0587	-404.6209	291.6062	1351.4712	-374.9444	390.8571	1112.5737	-196.1839	157.9108	1191.2618	-217.5508	314.2093	1125.0127	-2.1159	250.0671	986.3352	-33.1921	256.5169	995.3619	35.1565	312.1025	841.3738	60.9093	364.2522	779.7732	45.5448	315.3809	771.9166	60.6312	387.385	697.5873	59.7368	338.1639	693.0845	70.9837	351.1945	1123.041	-396.4311	290.0748	993.5994	-368.7831	294.4916	989.3579	-421.0949	329.7399	840.083	-453.5514	370.8326	766.8113	-448.5033	325.9597	763.187	-448.0446	378.9728	687.3721	-458.8419	330.391	684.1376	-453.2043	376.1681	906.7606	-67.0581	186.8752	923.9149	-153.138	380.2613	893.2976	-329.2613	189.1796	918.548	-256.6146	285.8534	966.1997	-41.7395	289.0826	938.9172	-367.6712	133.6189	1308.9745	-323.1215	119.4763	1209.1409	-314.7138	210.0806	1293.445	-437.3332
55	0.27	207.9837	1374.5083	-207.0437	336.2755	1302.646	-199.9274	209.0642	1315.6107	-42.0934	246.8685	1311.7802	-9.8551	267.769	1346.3321	-29.9518	228.3446	1324.3644	-373.0905	267.8385	1316.0806	-404.6258	291.5386	1351.6514	-375.2892	390.8895	1112.5712	-196.1529	157.9248	1191.2472	-217.5549	314.2495	1124.9862	-2.1189	250.114	986.3321	-33.2174	256.5154	995.3725	35.1547	312.1089	841.3729	60.9555	364.2894	779.7491	45.5538	315.3007	772.025	60.6858	387.3801	697.6095	59.7761	338.1532	693.0255	70.9394	351.202	1123.0134	-396.4114	290.0731	993.6018	-368.7541	294.4797	989.3482	-421.079	329.7312	840.0884	-453.5358	370.8073	766.775	-448.4599	325.9094	763.1722	-447.9849	378.9043	687.3695	-458.7826	330.358	684.1372	-453.185	376.1623	906.7478	-67.0771	186.8713	923.9168	-153.0954	380.2694	893.3102	-329.2727	189.1722	918.5585	-256.602	285.9822	966.2311	-41.7662	289.0915	938.9196	-367.6811	133.6079	1308.9524	-323.1083	119.4665	1209.1322	-314.7058	210.0692	1293.4622	-437.3357
